<svg width="28" height="28" viewBox="0 0 28 28" fill="none" xmlns="http://www.w3.org/2000/svg">
<path fill-rule="evenodd" clip-rule="evenodd" d="M14 28C21.732 28 28 21.732 28 14C28 6.26801 21.732 0 14 0C9.05408 0 4.70719 2.56473 2.21673 6.43678H16.7356C20.7074 6.43678 22.8967 9.63815 23.0298 12.5928C23.0974 14.0921 22.6623 15.6812 21.5681 16.9162C20.4467 18.1821 18.7816 18.908 16.7356 18.908H9.97701V27.4134C11.2512 27.795 12.6016 28 14 28ZM6.43678 25.7833V17.1379V15.3678H8.2069H16.7356C17.9081 15.3678 18.5562 14.9774 18.9182 14.5687C19.3076 14.1291 19.5262 13.4855 19.4932 12.7521C19.4251 11.2412 18.3961 9.97701 16.7356 9.97701H0.586621C0.205013 11.2512 0 12.6016 0 14C0 18.9459 2.56473 23.2928 6.43678 25.7833Z" fill="url(#paint0_linear_1_92)"/>
<defs>
<linearGradient id="paint0_linear_1_92" x1="14" y1="0" x2="14" y2="32.5" gradientUnits="userSpaceOnUse">
<stop stop-color="#FEDA0A"/>
<stop offset="1" stop-color="#CCB800"/>
</linearGradient>
</defs>
</svg>
