<svg width="38" height="39" viewBox="0 0 38 39" fill="none" xmlns="http://www.w3.org/2000/svg">
<path d="M1 9.28033L18.5385 1.09851L27.7692 5.18942M1 9.28033L18.5385 17.4621M1 9.28033L9.30769 5.40473L17.7428 8.94627C18.2506 9.15947 18.8239 9.15384 19.3274 8.93069L27.7692 5.18942M1 9.28033V19.0985M37 9.28033L18.5385 17.4621M37 9.28033V19.0985M37 9.28033L27.7692 5.18942M18.5385 17.4621V37.0985M18.5385 37.0985L27.7692 33.0076M18.5385 37.0985L9.30769 32.7923M27.7692 33.0076L37 28.9167V19.0985M27.7692 33.0076V25.2092C27.7692 24.4697 28.1773 23.7906 28.8301 23.4434L37 19.0985M1 19.0985V28.9167L9.30769 32.7923M1 19.0985L8.32515 23.427C8.9341 23.7868 9.30769 24.4415 9.30769 25.1489V32.7923" stroke="#878787" stroke-width="2"/>
</svg>
