<svg width="45" height="45" viewBox="0 0 45 45" fill="none" xmlns="http://www.w3.org/2000/svg">
<path fill-rule="evenodd" clip-rule="evenodd" d="M22.5 45C34.9264 45 45 34.9264 45 22.5C45 10.0736 34.9264 0 22.5 0C14.5513 0 7.56526 4.12181 3.56271 10.3447H26.8966C33.2797 10.3447 36.7983 15.4897 37.0122 20.2382C37.1208 22.6478 36.4215 25.2017 34.6631 27.1866C32.8608 29.2211 30.1847 30.3878 26.8966 30.3878H16.0345V44.0572C18.0823 44.6705 20.2527 45 22.5 45ZM10.3448 41.4374V27.5429V24.6981H13.1897H26.8966C28.7809 24.6981 29.8224 24.0706 30.4043 23.4138C31.03 22.7074 31.3814 21.673 31.3283 20.4942C31.2189 18.066 29.5651 16.0343 26.8966 16.0343H0.942836C0.329504 18.0821 0 20.2526 0 22.5C0 30.4488 4.12189 37.4349 10.3448 41.4374Z" fill="url(#paint0_linear_1_97)"/>
<defs>
<linearGradient id="paint0_linear_1_97" x1="22.5" y1="0" x2="22.5" y2="52.2321" gradientUnits="userSpaceOnUse">
<stop stop-color="#FEDA0A"/>
<stop offset="1" stop-color="#CCB800"/>
</linearGradient>
</defs>
</svg>
